<svg id="Layer_1" data-name="Layer 1" xmlns="http://www.w3.org/2000/svg" viewBox="0 0 49.25 62.28"><defs><style>.cls-1{fill:#cfcfce;}.cls-2{fill:#8c1827;}.cls-3{fill:#9a9a9a;}</style></defs><polygon class="cls-1" points="38.29 62.28 7.94 62.28 23.88 21.04 38.29 62.28"/><path class="cls-2" d="M56.3,63.14H48.58L32.19,21.57a.26.26,0,0,0-.49,0L15.31,63.14H7.7a.32.32,0,0,1-.3-.45l20.5-52,3.8-9.63a.33.33,0,0,1,.61,0L36,10.55,56.6,62.69A.32.32,0,0,1,56.3,63.14Z" transform="translate(-7.37 -0.86)"/><path class="cls-3" d="M48.58,63.14H45.73a.59.59,0,0,1-.56-.4L31.3,23.84a1.9,1.9,0,0,1,0-1.31L31.94,21Z" transform="translate(-7.37 -0.86)"/></svg>